#N canvas 1191 238 603 303 10;
#X obj -96 253 dac~;
#X obj -98 151 soundSource;
#X obj -35 70 route list;
#X obj 74 153 folder/soundSource2;
#X obj -116 103 r g_bang;
#X obj -188 102 r g_freq;
#X obj -35 104 route sound1;
#X obj 74 105 route sound2;
#X obj -35 39 r g_list;
#X obj -166 189 voice/voicePlayer 48;
#X obj 241 190 voice/voicePlayer 441;
#X connect 1 0 0 0;
#X connect 1 0 0 1;
#X connect 2 0 6 0;
#X connect 2 0 7 0;
#X connect 3 0 0 0;
#X connect 3 0 0 1;
#X connect 4 0 9 0;
#X connect 5 0 1 0;
#X connect 6 0 9 0;
#X connect 7 0 10 0;
#X connect 8 0 2 0;
#X connect 9 0 0 0;
#X connect 9 0 0 1;
#X connect 10 0 0 0;
#X connect 10 0 0 1;
