#N canvas 0 23 450 300 10;
#X obj 115 197 dac~;
#X obj 116 32 r g_message;
#X obj 118 141 soundSource;
#X obj 119 63 route list;
#X obj 115 97 route trigger1;
#X obj 224 98 route trigger2;
#X obj 244 148 folder/soundSource2;
#X connect 1 0 3 0;
#X connect 2 0 0 0;
#X connect 2 0 0 1;
#X connect 3 0 4 0;
#X connect 3 0 5 0;
#X connect 4 0 2 0;
#X connect 5 0 6 0;
#X connect 6 0 0 0;
#X connect 6 0 0 1;
