#N canvas 865 368 828 630 10;
#X obj 247 33 loadbang;
#X obj -98 542 outlet~;
#X obj -108 10 inlet bng;
#X obj 98 4 loadbang;
#X obj 250 62 \$1;
#X obj -108 138 spigot;
#X obj -71 120 tgl 15 0 empty empty empty 17 7 0 10 -262144 -1 -1 1
1;
#X msg -26 89 0;
#X msg -65 65 1;
#X obj -100 48 bng 15 250 50 0 empty empty empty 17 7 0 10 -262144
-1 -1;
#X obj -19 62 bng 15 250 50 0 empty empty empty 17 7 0 10 -262144 -1
-1;
#X obj -66 43 del 500;
#X obj 122 549 outlet bang;
#X msg 246 111 Voice\$1.wav;
#X obj 163 33 bng 15 250 50 0 empty empty empty 17 7 0 10 -262144 -1
-1;
#X obj -106 219 bng 15 250 50 0 empty empty empty 17 7 0 10 -262144
-1 -1;
#X obj -100 289 filePlayer441;
#X connect 0 0 4 0;
#X connect 2 0 5 0;
#X connect 3 0 8 0;
#X connect 4 0 13 0;
#X connect 5 0 10 0;
#X connect 5 0 11 0;
#X connect 5 0 12 0;
#X connect 5 0 15 0;
#X connect 6 0 5 1;
#X connect 7 0 6 0;
#X connect 8 0 6 0;
#X connect 9 0 5 0;
#X connect 10 0 7 0;
#X connect 11 0 8 0;
#X connect 13 0 16 1;
#X connect 14 0 4 0;
#X connect 15 0 16 0;
#X connect 16 0 1 0;
