#N canvas 655 321 828 630 10;
#X obj 291 132 loadbang;
#X obj 291 152 bng 15 250 50 0 empty empty empty 17 7 0 10 -262144
-1 -1;
#X obj 291 170 \$0;
#X obj 246 251 soundfiler;
#N canvas 0 22 450 278 (subpatch) 0;
#X array \$0-array 42353 float 2;
#X coords 0 1 42353 -1 200 140 1 0 0;
#X restore 421 388 graph;
#X msg 246 220 read -resize \$1 \$2-array;
#X obj 246 196 list 1 2;
#X obj 247 33 loadbang;
#X obj -111 545 outlet~;
#X obj -115 207 tabplay~ \$0-array;
#X obj -113 275 *~ 1;
#X obj -108 10 inlet bng;
#X obj 98 4 loadbang;
#X obj 250 62 \$1;
#X obj -108 138 spigot;
#X obj -71 120 tgl 15 0 empty empty empty 17 7 0 10 -262144 -1 -1 1
1;
#X msg -26 89 0;
#X msg -65 65 1;
#X obj -100 48 bng 15 250 50 0 empty empty empty 17 7 0 10 -262144
-1 -1;
#X obj -19 62 bng 15 250 50 0 empty empty empty 17 7 0 10 -262144 -1
-1;
#X obj -66 43 del 500;
#X obj 15 550 outlet bang;
#X msg 246 111 Voice\$1.wav;
#X obj 133 493 tabread~ \$0-array;
#X obj 133 467 line~;
#X msg 160 440 0 0;
#X obj 133 416 t l b;
#X obj 133 306 f;
#X obj 163 33 bng 15 250 50 0 empty empty empty 17 7 0 10 -262144 -1
-1;
#X obj 133 246 bng 15 250 50 0 empty empty empty 17 7 0 10 -262144
-1 -1;
#X msg 133 392 \$1 \$2;
#X obj 133 364 pack f f;
#X obj 178 340 / 44.1;
#X connect 0 0 1 0;
#X connect 1 0 2 0;
#X connect 2 0 6 1;
#X connect 3 0 27 1;
#X connect 3 0 32 0;
#X connect 5 0 3 0;
#X connect 6 0 5 0;
#X connect 7 0 13 0;
#X connect 9 0 10 0;
#X connect 10 0 8 0;
#X connect 11 0 14 0;
#X connect 12 0 17 0;
#X connect 13 0 22 0;
#X connect 14 0 19 0;
#X connect 14 0 20 0;
#X connect 14 0 21 0;
#X connect 14 0 29 0;
#X connect 15 0 14 1;
#X connect 16 0 15 0;
#X connect 17 0 15 0;
#X connect 18 0 14 0;
#X connect 19 0 16 0;
#X connect 20 0 17 0;
#X connect 22 0 6 0;
#X connect 23 0 8 0;
#X connect 24 0 23 0;
#X connect 25 0 24 0;
#X connect 26 0 24 0;
#X connect 26 1 25 0;
#X connect 27 0 31 0;
#X connect 28 0 13 0;
#X connect 29 0 27 0;
#X connect 30 0 26 0;
#X connect 31 0 30 0;
#X connect 32 0 31 1;
