#N canvas 71 98 539 333 10;
#X obj 118 148 line~;
#X obj 107 188 *~;
#X msg 156 113 0 300;
#X obj 115 66 bng 15 250 50 0 empty empty empty 17 7 0 10 -262144 -1
-1;
#X obj 116 20 inlet trigger;
#X msg 117 113 1 5;
#X obj 157 91 del 20;
#X obj 110 244 outlet~;
#X obj 39 99 osc~ 880;
#X connect 0 0 1 1;
#X connect 1 0 7 0;
#X connect 2 0 0 0;
#X connect 3 0 5 0;
#X connect 3 0 6 0;
#X connect 4 0 3 0;
#X connect 5 0 0 0;
#X connect 6 0 2 0;
#X connect 8 0 1 0;
